<?xml version="1.0" standalone="no"?>
<!DOCTYPE svg PUBLIC "-//W3C//DTD SVG 20010904//EN"
 "http://www.w3.org/TR/2001/REC-SVG-20010904/DTD/svg10.dtd">
<svg version="1.0" xmlns="http://www.w3.org/2000/svg"
 width="120.000000pt" height="120.000000pt" viewBox="0 0 120.000000 120.000000"
 preserveAspectRatio="xMidYMid meet">
<metadata>
Created by potrace 1.14, written by Peter Selinger 2001-2017
</metadata>
<g transform="translate(0.000000,120.000000) scale(0.100000,-0.100000)"
fill="#000000" stroke="none">
<path d="M845 1149 c-150 -46 -125 -262 30 -262 110 0 172 130 103 218 -31 40
-87 58 -133 44z m35 -31 c0 7 5 10 10 7 6 -4 8 -11 5 -16 -4 -5 -2 -9 4 -9 5
0 11 6 14 13 3 9 10 7 25 -7 12 -10 19 -23 15 -28 -3 -6 0 -13 6 -17 14 -9 23
-71 11 -71 -5 0 -7 -7 -4 -15 4 -8 1 -15 -6 -15 -6 0 -8 -6 -5 -12 4 -7 -1 -4
-10 7 -17 20 -17 20 -10 -4 5 -16 4 -21 -4 -17 -6 4 -11 2 -11 -4 0 -6 -4 -8
-10 -5 -5 3 -10 0 -11 -7 0 -10 -2 -10 -6 0 -2 6 -9 12 -14 12 -6 0 -8 -4 -4
-9 3 -6 -4 -8 -17 -5 -13 3 -29 6 -35 6 -10 1 -10 4 0 17 9 12 9 13 0 7 -8 -4
-13 -2 -13 4 0 6 -4 8 -10 5 -9 -6 -14 8 -11 28 0 4 -4 7 -11 7 -9 0 -9 3 0
12 18 18 15 33 -4 17 -11 -9 -10 -1 6 29 12 23 28 42 36 42 7 0 11 6 8 13 -3
8 2 14 10 14 8 0 13 -5 10 -11 -3 -6 1 -3 8 6 9 13 14 14 20 5 6 -9 8 -9 8 1z"/>
<path d="M920 1106 c0 -2 8 -10 18 -17 15 -13 16 -12 3 4 -13 16 -21 21 -21
13z"/>
<path d="M267 1075 c-87 -28 -140 -68 -190 -142 -115 -169 -53 -418 128 -511
122 -62 229 -62 350 0 46 24 118 95 141 140 52 100 54 218 6 321 -78 169 -260
249 -435 192z m73 -49 c0 -6 -73 -50 -84 -50 -18 -2 -17 -24 1 -30 9 -4 14 -4
10 0 -8 8 21 44 36 44 5 0 3 -8 -4 -17 -13 -16 -12 -17 3 -4 10 7 16 17 13 21
-3 4 3 11 12 15 10 3 19 1 21 -4 2 -6 8 -11 13 -11 6 0 6 8 -1 19 -8 16 -7 19
8 16 9 -2 18 -4 20 -5 1 -2 16 -4 32 -5 50 -4 51 -5 44 -16 -4 -8 -9 -7 -16 2
-8 11 -9 10 -5 -2 3 -9 0 -23 -6 -30 -10 -11 -9 -11 4 -1 9 6 20 8 24 4 5 -4
5 -1 1 6 -4 6 -4 12 1 13 4 0 16 2 25 4 10 2 15 -2 12 -9 -6 -16 32 -60 45
-52 12 8 33 -28 23 -39 -4 -5 -1 -5 6 -1 6 4 12 3 12 -3 0 -5 -3 -11 -8 -14
-4 -2 -2 -3 5 -1 18 4 24 -8 11 -23 -6 -7 -8 -16 -4 -20 3 -3 6 -1 6 6 0 7 5
9 10 6 6 -4 7 -11 4 -17 -4 -6 -2 -8 3 -5 16 10 24 -18 10 -32 -9 -9 -8 -11 4
-6 9 3 16 18 16 36 0 16 -3 25 -7 19 -5 -7 -11 -6 -20 5 -11 13 -9 15 11 12
22 -4 24 -9 22 -52 -1 -26 -5 -55 -9 -64 -12 -28 -14 -51 -5 -51 6 0 8 9 6 20
-2 12 0 18 6 15 5 -4 9 -3 8 2 -3 17 1 24 11 18 8 -5 7 -12 -2 -22 -7 -9 -13
-23 -13 -32 0 -9 -6 -17 -12 -17 -7 -1 -17 -2 -23 -3 -5 0 -10 -6 -10 -12 0
-6 5 -7 13 -2 6 4 21 8 32 10 11 1 15 0 9 -3 -7 -3 -11 -13 -9 -22 1 -9 0 -11
-2 -4 -6 15 -20 16 -29 0 -4 -6 -3 -8 4 -5 6 5 6 -2 -1 -18 -7 -14 -20 -25
-29 -25 -10 0 -18 -4 -18 -9 0 -4 11 -7 25 -6 21 3 23 1 12 -16 -7 -11 -13
-15 -15 -9 -2 5 -8 10 -13 10 -4 0 -6 -6 -3 -14 3 -9 -5 -21 -20 -31 -14 -10
-23 -22 -19 -29 3 -6 0 -6 -8 2 -17 16 -32 16 -22 0 4 -7 -6 -4 -22 6 -20 13
-26 14 -18 4 7 -8 9 -19 5 -23 -4 -5 -2 -5 5 -1 6 3 15 1 19 -5 4 -8 3 -9 -4
-5 -7 4 -12 2 -12 -4 0 -6 -11 -8 -25 -6 -16 3 -28 -1 -35 -12 -5 -9 -10 -12
-10 -6 0 5 5 15 12 22 9 9 9 12 0 13 -7 1 -18 2 -24 3 -20 3 -58 -16 -52 -26
3 -5 13 -3 21 4 21 17 43 19 36 2 -3 -8 -9 -11 -14 -8 -6 3 -16 1 -24 -6 -10
-8 -15 -8 -20 0 -4 6 -14 9 -22 6 -9 -4 -11 -2 -7 5 4 7 1 10 -7 7 -8 -3 -13
-11 -11 -17 1 -7 -2 -10 -8 -6 -6 3 -8 10 -5 15 7 11 -20 32 -30 22 -5 -4 -5
-1 -1 6 6 10 11 10 22 1 10 -8 14 -8 14 0 0 6 -5 11 -11 11 -5 0 -7 5 -3 12 4
6 3 8 -4 4 -6 -3 -15 2 -21 11 -6 10 -11 13 -11 7 0 -5 6 -16 13 -23 10 -11 9
-13 -3 -9 -8 3 -23 1 -33 -4 -9 -5 -17 -5 -16 -1 1 4 -1 16 -6 26 -6 15 -10
16 -17 5 -7 -10 -8 -8 -4 5 4 13 1 17 -11 15 -9 -2 -18 4 -20 12 -3 10 -2 11
4 3 6 -8 15 -6 33 8 20 16 21 18 4 10 -16 -7 -26 -7 -40 3 -10 8 -23 13 -29
12 -5 -2 -7 -1 -2 1 4 3 7 9 7 14 0 6 -4 8 -8 5 -13 -8 -11 27 2 43 9 11 6 13
-14 7 -19 -6 -21 -5 -10 3 11 8 12 11 2 11 -7 0 -10 5 -7 10 3 6 0 10 -7 10
-10 0 -10 2 1 9 9 6 10 11 2 15 -13 9 -5 26 12 26 8 0 8 -3 -1 -9 -10 -6 -10
-10 2 -20 8 -7 13 -18 10 -25 -3 -8 3 -16 14 -18 11 -3 19 0 19 7 0 8 -7 11
-15 7 -11 -4 -13 -1 -7 7 4 8 2 17 -6 22 -12 8 -11 12 4 23 17 13 17 14 0 20
-14 6 -15 9 -3 16 8 5 18 6 22 4 4 -3 8 0 8 5 0 6 -10 10 -21 8 -17 -1 -22 4
-23 25 -1 14 3 24 8 21 5 -4 7 1 3 10 -3 9 -2 19 4 23 6 3 8 12 5 20 -3 9 0
11 11 7 11 -4 14 -2 9 5 -5 8 -1 10 11 5 15 -6 16 -4 5 9 -10 13 -10 18 -1 24
8 4 9 3 5 -5 -4 -6 0 -14 8 -17 9 -3 13 -11 9 -17 -3 -6 -1 -7 6 -3 9 6 9 11
0 22 -10 12 -9 17 1 27 9 8 11 8 7 1 -4 -7 0 -14 8 -17 14 -6 11 16 -6 39 -6
7 -1 10 14 9 29 -3 42 5 26 16 -9 5 -4 8 16 6 20 -1 29 2 27 11 -1 8 2 11 8 7
5 -3 18 -1 27 4 20 12 23 13 23 7z m200 -46 c-10 -6 -11 -10 -2 -10 6 0 12 -8
12 -17 0 -15 -2 -14 -19 3 -18 18 -11 34 14 34 6 0 3 -5 -5 -10z m41 -34 c5 3
9 2 8 -3 -3 -19 2 -34 9 -29 5 3 19 -6 30 -19 l22 -25 -23 4 c-14 2 -21 9 -19
21 2 9 -1 14 -6 11 -10 -6 -43 36 -41 51 0 4 3 2 6 -5 2 -6 9 -10 14 -6z
m-474 -173 c-4 -3 -2 -12 5 -20 8 -11 7 -12 -6 -7 -18 7 -22 34 -4 34 6 0 8
-3 5 -7z m577 -79 c3 -8 2 -12 -4 -9 -6 3 -10 10 -10 16 0 14 7 11 14 -7z
m-34 -88 c0 -3 -4 -8 -10 -11 -5 -3 -10 -1 -10 4 0 6 5 11 10 11 6 0 10 -2 10
-4z"/>
<path d="M376 1006 c7 -19 20 -21 30 -3 4 6 4 9 -1 5 -4 -4 -14 -3 -22 4 -11
8 -12 7 -7 -6z"/>
<path d="M413 990 c-11 -16 -10 -18 2 -14 8 4 15 12 15 20 0 19 -3 18 -17 -6z"/>
<path d="M333 983 c4 -3 1 -13 -6 -22 -11 -14 -10 -14 5 -2 16 12 16 31 1 31
-4 0 -3 -3 0 -7z"/>
<path d="M480 940 c-12 -7 -10 -9 7 -7 12 0 19 5 17 9 -6 10 -6 10 -24 -2z"/>
<path d="M250 920 c0 -5 5 -10 11 -10 5 0 7 5 4 10 -3 6 -8 10 -11 10 -2 0 -4
-4 -4 -10z"/>
<path d="M210 899 c0 -5 5 -7 10 -4 6 3 10 8 10 11 0 2 -4 4 -10 4 -5 0 -10
-5 -10 -11z"/>
<path d="M140 874 c-17 -20 -22 -62 -8 -70 7 -4 8 -2 4 4 -10 17 12 54 27 45
7 -4 5 1 -3 12 -14 17 -13 17 10 11 19 -6 21 -5 10 3 -20 14 -25 14 -40 -5z"/>
<path d="M153 825 c0 -8 4 -12 9 -9 5 3 6 10 3 15 -9 13 -12 11 -12 -6z"/>
<path d="M595 781 c-3 -5 -2 -12 3 -15 5 -3 9 1 9 9 0 17 -3 19 -12 6z"/>
<path d="M625 759 c-4 -6 -5 -12 -2 -15 2 -3 7 2 10 11 7 17 1 20 -8 4z"/>
<path d="M130 640 c-9 -6 -10 -10 -3 -10 6 0 15 5 18 10 8 12 4 12 -15 0z"/>
<path d="M143 622 c-10 -7 -10 -12 0 -25 11 -16 12 -15 12 8 0 14 0 25 0 25 0
0 -6 -4 -12 -8z"/>
<path d="M595 620 c3 -5 8 -10 11 -10 2 0 4 5 4 10 0 6 -5 10 -11 10 -5 0 -7
-4 -4 -10z"/>
<path d="M171 594 c0 -11 3 -14 6 -6 3 7 2 16 -1 19 -3 4 -6 -2 -5 -13z"/>
<path d="M202 530 c7 -11 18 -22 26 -25 8 -3 6 4 -5 20 -21 29 -38 34 -21 5z"/>
<path d="M530 538 c0 -4 5 -8 11 -8 5 0 7 -5 4 -10 -4 -6 -11 -7 -17 -4 -7 4
-8 2 -4 -4 5 -9 14 -7 31 4 14 9 23 20 20 24 -7 11 -45 9 -45 -2z"/>
<path d="M495 520 c-3 -5 -1 -10 4 -10 6 0 11 5 11 10 0 6 -2 10 -4 10 -3 0
-8 -4 -11 -10z"/>
<path d="M355 509 c-4 -6 -5 -12 -2 -15 2 -3 7 2 10 11 7 17 1 20 -8 4z"/>
<path d="M398 493 c7 -3 16 -2 19 1 4 3 -2 6 -13 5 -11 0 -14 -3 -6 -6z"/>
<path d="M435 490 c-6 -9 11 -23 32 -26 16 -3 5 23 -12 30 -8 3 -17 1 -20 -4z"/>
<path d="M316 477 c-16 -12 -16 -13 7 -12 14 0 29 4 33 8 5 4 0 5 -10 1 -14
-5 -17 -4 -12 4 9 15 4 15 -18 -1z"/>
<path d="M813 539 c-70 -27 -119 -75 -148 -144 -68 -167 49 -343 233 -351 74
-3 124 15 174 59 130 116 108 323 -44 415 -65 40 -143 47 -215 21z m90 -32 c4
3 13 0 21 -6 10 -8 16 -9 21 -1 3 5 12 10 18 10 13 -1 -23 -24 -37 -25 -5 0
-11 -7 -13 -15 -4 -13 -3 -13 6 0 6 8 11 11 11 6 0 -6 5 -5 12 2 16 16 28 15
28 -2 0 -16 34 -31 49 -21 5 3 16 -4 25 -16 8 -12 19 -18 25 -15 7 4 8 1 5 -8
-5 -12 -11 -13 -27 -5 -21 10 -21 10 -3 -5 11 -9 26 -16 34 -16 9 0 12 -7 8
-22 -3 -13 -3 -17 0 -10 3 6 10 9 16 6 6 -4 1 -12 -13 -20 -13 -7 -18 -13 -11
-14 7 0 10 -5 6 -12 -4 -7 -3 -8 5 -4 6 4 9 12 6 17 -10 15 2 10 16 -8 8 -9 9
-14 3 -10 -7 4 -15 0 -18 -9 -3 -8 -10 -13 -14 -10 -11 6 -8 -51 3 -62 4 -4 5
2 1 13 -3 11 -1 27 4 35 8 13 11 13 22 1 7 -8 8 -11 2 -8 -15 9 -21 -9 -18
-52 1 -26 -1 -30 -7 -18 -5 9 -16 14 -24 11 -8 -4 -12 -11 -9 -16 4 -6 10 -5
15 3 6 10 8 8 7 -8 -2 -20 -3 -20 -27 -4 -14 9 -22 11 -18 4 4 -6 2 -13 -5
-15 -7 -3 -5 -7 6 -11 11 -5 15 -3 10 5 -4 7 -3 8 5 4 8 -6 9 -12 2 -20 -6 -7
-8 -16 -4 -20 4 -4 0 -4 -10 0 -9 3 -14 11 -11 16 4 6 -1 6 -13 -1 -11 -6 -24
-7 -28 -3 -3 4 -6 3 -5 -3 5 -25 -2 -35 -26 -35 -24 0 -25 2 -13 18 13 16 13
16 -7 -1 -11 -9 -24 -14 -29 -10 -4 5 -5 2 -1 -5 4 -7 11 -10 16 -7 5 3 11 1
14 -4 4 -5 2 -12 -3 -15 -5 -4 -12 -2 -16 4 -4 6 -11 8 -16 5 -5 -4 -9 -1 -9
4 0 6 -5 11 -11 11 -5 0 -8 -4 -4 -9 3 -5 0 -13 -6 -17 -7 -4 -9 -3 -5 4 3 6
2 13 -3 16 -5 4 -13 1 -17 -5 -10 -17 -25 12 -18 36 4 16 2 15 -9 -4 -12 -20
-15 -21 -20 -7 -4 10 -11 15 -15 12 -12 -7 -36 39 -27 53 3 6 12 8 18 5 7 -4
8 -3 4 1 -12 13 -36 15 -44 3 -4 -7 -1 -8 7 -3 9 5 11 4 6 -4 -11 -16 -26 -3
-19 16 5 12 3 14 -7 8 -9 -5 -11 -4 -6 3 4 7 2 12 -3 12 -6 0 -11 4 -11 10 0
5 5 9 11 7 6 -1 13 6 14 16 2 9 -1 15 -6 11 -5 -3 -7 -10 -4 -15 3 -5 -1 -6
-10 -3 -12 5 -13 10 -6 17 6 6 11 22 11 37 0 20 2 22 10 10 5 -8 10 -10 10 -4
0 6 -8 18 -17 25 -9 8 -14 9 -11 4 4 -6 2 -17 -3 -25 -14 -23 -6 19 9 48 7 12
10 22 6 22 -3 0 -1 6 5 13 6 8 9 17 6 21 -3 3 1 2 7 -4 7 -5 18 -10 26 -10 10
0 10 3 -2 16 -9 8 -16 18 -16 21 0 4 3 3 7 0 3 -4 12 -2 20 5 11 9 12 7 7 -8
-5 -18 -5 -18 6 -1 6 9 9 21 6 25 -3 5 1 9 9 9 8 0 12 -3 10 -7 -4 -6 31 -5
45 0 3 1 9 2 13 1 5 -1 6 3 2 9 -3 6 -10 8 -14 6 -4 -3 -8 1 -8 9 0 11 5 10
24 -2 25 -16 31 -6 11 17 -11 12 -10 12 3 2 9 -6 19 -9 22 -5z m-76 -4 c-4 -3
-1 -13 6 -22 11 -14 10 -14 -5 -2 -16 12 -16 31 -1 31 4 0 3 -3 0 -7z m184
-28 c11 6 11 5 2 -5 -12 -14 -33 -6 -33 13 0 8 3 7 9 -2 5 -8 14 -10 22 -6z
m-9 -357 c-7 -7 -12 -8 -12 -2 0 14 12 26 19 19 2 -3 -1 -11 -7 -17z"/>
<path d="M1016 442 c-3 -5 1 -9 9 -9 8 0 12 4 9 9 -3 4 -7 8 -9 8 -2 0 -6 -4
-9 -8z"/>
<path d="M725 400 c-3 -5 -4 -10 0 -10 3 0 1 -9 -5 -19 -7 -15 -7 -19 5 -17 8
1 18 6 22 11 4 4 2 5 -5 1 -9 -6 -11 -1 -8 18 5 27 2 33 -9 16z"/>
<path d="M1061 364 c0 -11 3 -14 6 -6 3 7 2 16 -1 19 -3 4 -6 -2 -5 -13z"/>
<path d="M735 241 c-3 -5 -2 -12 3 -15 5 -3 9 1 9 9 0 17 -3 19 -12 6z"/>
<path d="M765 160 c3 -5 8 -10 11 -10 2 0 4 5 4 10 0 6 -5 10 -11 10 -5 0 -7
-4 -4 -10z"/>
<path d="M795 140 c3 -5 8 -10 11 -10 2 0 4 5 4 10 0 6 -5 10 -11 10 -5 0 -7
-4 -4 -10z"/>
<path d="M844 133 c3 -6 0 -14 -6 -17 -7 -3 0 -3 16 -1 16 2 31 7 35 11 3 4
-1 5 -10 1 -9 -3 -22 0 -29 6 -10 9 -11 9 -6 0z"/>
</g>
</svg>
